<?xml version="1.0" encoding="UTF-8"?>
<!DOCTYPE svg PUBLIC "-//W3C//DTD SVG 1.1//EN" "http://www.w3.org/Graphics/SVG/1.1/DTD/svg11.dtd">
<!-- Creator: CorelDRAW 2018 (64 Bit Versão de avaliação) -->
<svg xmlns="http://www.w3.org/2000/svg" xml:space="preserve" width="254mm" height="254mm" version="1.1" style="shape-rendering:geometricPrecision; text-rendering:geometricPrecision; image-rendering:optimizeQuality; fill-rule:evenodd; clip-rule:evenodd"
viewBox="0 0 25400 25400"
 xmlns:xlink="http://www.w3.org/1999/xlink">
 <defs>
  <style type="text/css">
   <![CDATA[
    .fil0 {fill:#FEFCFF}
   ]]>
  </style>
 </defs>
 <g id="Camada_x0020_1">
  <metadata id="CorelCorpID_0Corel-Layer"/>
  <path class="fil0" d="M15603.97 11830.75c11.57,-45.35 -0.74,-83.64 -41.37,-106.38 -67.06,-38.37 -132.19,-78.15 -199.25,-116.52 -64.22,-36.95 -127.02,-74.37 -190.75,-112.27 -25.49,-15.15 -39.45,-38.79 -40.45,-69.04 -1.95,-30.71 -1.98,-62.85 -2.5,-94.04 -1.76,-44.89 18.65,-75.1 56.11,-99.15 120.05,-75.43 238.65,-150.39 357.75,-226.3 44.18,-27.82 59.44,-64.18 43.44,-111.46 -44.32,-132.84 -79.56,-269.45 -123.89,-402.29 -20.57,-61.46 -40.85,-75.19 -106.08,-73.39 -119.06,4.56 -238.13,9.11 -357.68,14.61 -132.88,5.96 -133.37,6.9 -201.8,-104.71 -3.26,-5.2 -5.57,-9.93 -7.89,-14.66 -15.8,-26.95 -17.79,-55.31 -3.12,-83.64 25.47,-51.47 43.83,-105.31 71.18,-155.83 41.03,-74.6 71.64,-154.42 111.26,-230.91 34.72,-67.05 27.48,-94.47 -29.43,-143.22 -104.9,-89.45 -207.86,-182.69 -325.35,-257.04 -12.29,-6.16 -23.64,-11.85 -35.93,-18.01 -32.2,-11.38 -59.92,-3.86 -86.85,15.94 -34.16,26.89 -72.58,50.46 -108.15,75.46 -79.28,54.22 -157.18,110.34 -236.93,163.16 -22.1,15.09 -46.52,25.45 -72.53,13.6 -34.08,-14.7 -69.16,-25.14 -102.73,-40.78 -37.82,-18.96 -60.28,-46.87 -65.39,-89.87 -10.66,-89.8 -23.69,-179.6 -35.78,-268.92 -7.33,-54.82 -12.74,-111.07 -22.45,-165.89 -6.62,-37.81 -24.32,-65.71 -64.22,-71.44 -146.29,-23.36 -292.6,-44.37 -439.89,-63.47 -40.4,-4.78 -71.56,11.7 -90.68,50.9 -32.87,70.36 -60.52,142.15 -91.49,213.45 -26.58,62.82 -53.15,125.61 -79.28,189.85 -15.74,37.3 -43.66,59 -84.18,63.67 -37.2,5.14 -73.45,10.76 -110.65,15.91 -42.45,6.08 -74.62,-7.68 -101.81,-37.95 -37.49,-42.58 -74.5,-86.11 -110.55,-129.15 -56.21,-66.24 -112.89,-131.53 -170.53,-197.29 -27.64,-31.7 -62.13,-50.17 -104.29,-30.86 -133.14,59.35 -266.75,117.27 -398.05,179.94 -34.49,16.01 -45.83,44.83 -43.94,80.27 1.23,13.71 2.95,26.46 5.63,39.7 22.97,128.09 44.03,257.59 68.44,385.2 8.44,43.49 -2.52,78.44 -37.67,107.21 -32.73,26.42 -64.98,51.89 -95.37,80.67 -38.6,37.75 -81.08,46.19 -133.21,29.58 -129.39,-39.87 -260.26,-76.92 -390.63,-114.9 -65.43,-18.53 -93.63,-10.06 -132.49,46.58 -59.24,84.5 -108.58,175.16 -159.81,264.86 -9.22,13.22 -10.89,30.24 -24.34,40.14 -13.71,26.43 -26.91,51.94 -40.6,78.38 1.59,22.21 14.7,38.3 29.23,53.91 94.74,102.19 189.96,203.45 285.18,304.71 29.08,31.23 35.77,64.31 23.3,104.46 -17.4,54.32 -33.88,109.11 -50.34,163.89 -12.98,43.46 -40.43,66.57 -83.44,78.33 -137.61,38.08 -275.29,80.88 -412.91,118.95 -43,11.76 -66.74,41.49 -67.36,86.38 -2.26,128.53 -2.14,257.05 -0.58,385.12 1.07,60 21.74,79.88 79.6,94.61 133.31,32.32 265.64,66.53 398,98.38 44.6,10.46 70.45,34.12 82.71,77.14 14.54,50.11 30.02,100.69 48.85,149.39 21.13,55.78 11.93,101.14 -31.08,147.38 -89.89,97.68 -176.97,199.15 -264.98,297.78 -45.44,50.98 -46.75,76.49 -10.44,135.13 21.91,33.58 44.3,66.22 66.21,99.8 43.81,67.16 89.06,133.85 133.36,200.06 29.83,45.88 58.74,54.43 112.73,39.86 13.85,-3.77 28.2,-8.46 41.61,-13.65 119.62,-44.72 241.06,-83.77 362.05,-124.23 43.03,-14.11 78.67,-9.34 112.05,20.49 42.8,36.91 87.04,73.36 132.26,107.91 40.97,31.25 53.78,68.6 45.47,119.15 -22.73,128.96 -40.25,259.35 -62.98,388.32 -6.72,38.26 0.03,66.62 29.19,90.77 114.57,57.42 239.36,114.86 357.12,163.52 80.45,33.19 94.77,30.85 148.99,-34.75 84.74,-103.84 170.43,-207.2 254.22,-311.51 24.23,-30.68 51.68,-53.79 94.45,-49 63.7,5.75 127.87,12.93 191.08,19.64 31.85,2.88 54,19.92 67.88,48.29 6.94,14.19 13.88,28.38 19.89,42.08 51.2,117.26 103.85,234.05 156.48,350.84 23.09,52.01 50.99,64.81 108.24,55.44 53.43,-8.9 105.96,-20.64 159.39,-29.55 71.57,-11.7 142.21,-26.25 212.38,-39.86 68.73,-13.13 87.56,-33.42 96.6,-101.45 1.05,-6.62 2.09,-13.23 2.19,-20.32 15.62,-131.34 30.76,-261.74 45.44,-393.55 4.89,-43.94 24.84,-75.57 64.62,-94.89 41.22,-19.78 82.46,-41.94 124.16,-62.67 34.53,-18.38 67.81,-15.97 98.94,4.4 58.03,37.4 115.57,75.76 174.08,112.23 63.71,40.26 124.96,85.23 192.05,121.24 44.89,23.69 72.09,19.48 110.16,-14.96 101.74,-92.95 202.52,-186.36 303.29,-279.78 36.16,-33.02 43.27,-65.15 22.93,-108.65 -20.34,-43.5 -41.17,-86.06 -62.95,-129.09 -45.4,-89.36 -89.37,-179.21 -133.35,-269.05 -14.83,-28.84 -21.05,-60.52 -2.57,-89.32 19.46,-30.68 36.09,-62.78 54.13,-93 25.85,-45.33 62.79,-66.06 116.56,-64.1 130.85,2.55 260.85,-0.11 391.7,2.44 33.32,0.05 59.6,-7.01 80.43,-33.43 6.36,-12.28 12.24,-23.61 18.59,-35.88 49.45,-132.26 85.64,-271.13 121.36,-409.05zm-1673.38 788.45c178.75,0 323.65,-144.55 323.65,-322.87 0,-178.31 -144.9,-322.87 -323.65,-322.87 -137.43,0 -254.84,85.46 -301.78,206.02l-837.46 0.53 -424.72 -609.02 1607.09 -1.14c46.3,121.84 164.35,208.45 302.71,208.45 178.75,0 323.64,-144.55 323.64,-322.87 0,-178.31 -144.89,-322.87 -323.64,-322.87 -136.9,0 -253.95,84.79 -301.24,204.6l-1608.63 0 424.77 -609.1 837.09 -1.59c46.65,121.11 164.33,207.07 302.17,207.07 178.75,0 323.65,-144.55 323.65,-322.87 0,-178.31 -144.9,-322.87 -323.65,-322.87 -137.84,0 -255.52,85.97 -302.18,207.08l-957.87 -0.53 -588.63 842.81 -334.14 0 0 234.14 334.35 -0.11 588.43 842.53 957.74 -0.54 0 -1.36c46.59,121.27 164.35,207.38 302.3,207.38zm345.84 -974.08c104.98,0 190.1,-84.93 190.1,-189.69 0,-104.77 -85.12,-189.69 -190.1,-189.69 -105,0 -190.11,84.92 -190.11,189.69 0,104.76 85.11,189.69 190.11,189.69zm-345.84 840.9c105,0 190.11,-84.92 190.11,-189.69 0,-104.76 -85.11,-189.68 -190.11,-189.68 -104.99,0 -190.1,84.92 -190.1,189.68 0,104.77 85.11,189.69 190.1,189.69zm0 -1685.66c105,0 190.11,-84.93 190.11,-189.69 0,-104.75 -85.11,-189.68 -190.11,-189.68 -104.99,0 -190.1,84.93 -190.1,189.68 0,104.76 85.11,189.69 190.1,189.69z"/>
  <polygon class="fil0" points="10255.95,14591.49 9930.01,14591.49 9930.01,14696.45 10255.95,14696.45 10255.95,14889.26 9930.01,14889.26 9930.01,14998.53 10255.95,14998.53 10255.95,15214.9 9930.01,15214.9 9802.16,15214.9 9660.05,14974.97 9660.05,14914.96 9660.05,14675.03 9660.05,14625.76 9660.05,14385.83 9930.01,14385.83 10255.95,14385.83 "/>
  <polygon class="fil0" points="10341.31,14385.83 10595.17,14385.83 10724.16,14592.01 10853.16,14385.83 11107.02,14385.83 11107.02,15214.89 10853.16,15214.89 10853.16,14793.44 10724.16,14999.06 10595.17,14793.44 10595.17,15214.89 10341.31,15214.89 "/>
  <path class="fil0" d="M11194.56 15214.85l212.74 0 0 -273.49 191.41 0 -0.25 273.49 213.07 0 -0.36 -730.44 -102.94 -98.58 -265.74 0 -247.93 0 0 829.02zm212.73 -466.33l0.01 -222.35 149.59 -0.42 41.48 39.24 0.24 183.53 -191.32 0z"/>
  <polygon class="fil0" points="13916.61,14385.83 14370.99,14385.83 14493.37,14592.54 14181.51,14592.54 14181.51,14698.84 14493.37,14698.84 14493.37,15214.45 14043.64,15214.45 13916.61,14999.5 14240.47,14999.5 14240.47,14890.51 13916.61,14890.51 "/>
  <path class="fil0" d="M13203.05 14385.83l519.54 0 103 97.42 0 266.97 -102.99 100.1 91.18 153.35 125.66 211.41 -254.86 0.05 -161.55 -273.77 -95.42 0.11 0 273.7 -224.56 0 0 -829.34zm224.57 140.17l149.77 0 41.52 39.28 0 143.98 -35.57 33.99 -5.93 5.22 -149.79 0 0 -222.47z"/>
  <polygon class="fil0" points="11899.31,14385.83 12145.88,14385.83 12145.88,14673.27 12302.32,14385.83 12495.34,14385.83 12495.34,14591.25 12373.67,14815.21 12594.58,15215.51 12499.19,15215.51 12324.04,15215.51 12173.92,14940.69 12145.84,14940.74 12145.85,14998.22 12145.94,15215.51 12024.27,15215.51 11899.31,15215.81 "/>
  <polygon class="fil0" points="13112.55,14591.49 12823.22,14591.49 12823.22,14696.45 13112.55,14696.45 13112.55,14889.26 12823.22,14889.26 12823.22,14998.53 13112.55,14998.53 13112.55,15214.9 12823.22,15214.9 12725.19,15214.9 12583.59,14974.97 12583.59,14914.96 12583.59,14675.03 12583.59,14625.76 12583.59,14385.83 12823.22,14385.83 13112.55,14385.83 "/>
  <path class="fil0" d="M15641.98 14384.81l519.54 0 103 97.42 0 266.97 -102.99 100.1 91.19 153.36 125.65 211.4 -254.85 0.05 -161.55 -273.77 -95.42 0.11 0 273.7 -224.57 0 0 -829.34zm224.57 140.17l149.78 0 41.52 39.28 0 143.98 -35.58 34 -5.93 5.21 -149.79 0 0 -222.47z"/>
  <polygon class="fil0" points="16467.18,15040.5 16642.03,15040.5 16642.03,15215.35 16511.05,15215.35 16467.18,15160.44 "/>
  <polygon class="fil0" points="14935.92,14850.28 14935.92,15215.42 15399.98,15215.57 15552.66,15093.6 15552.29,14384.6 15040.3,14384.6 15040.3,14590 15328.27,14590 15328.27,15031.25 15132.62,15031.25 15132.62,14850.28 "/>
 </g>
</svg>
