<?xml version="1.0" encoding="UTF-8"?>
<!DOCTYPE svg PUBLIC "-//W3C//DTD SVG 1.1//EN" "http://www.w3.org/Graphics/SVG/1.1/DTD/svg11.dtd">
<!-- Creator: CorelDRAW 2018 (64 Bit Versão de avaliação) -->
<svg xmlns="http://www.w3.org/2000/svg" xml:space="preserve" width="254mm" height="254mm" version="1.1" style="shape-rendering:geometricPrecision; text-rendering:geometricPrecision; image-rendering:optimizeQuality; fill-rule:evenodd; clip-rule:evenodd"
viewBox="0 0 25400 25400"
 xmlns:xlink="http://www.w3.org/1999/xlink">
 <defs>
  <style type="text/css">
   <![CDATA[
    .fil0 {fill:#5E2075}
   ]]>
  </style>
 </defs>
 <g id="Camada_x0020_1">
  <metadata id="CorelCorpID_0Corel-Layer"/>
  <polygon class="fil0" points="11508.48,11730.7 11129.29,11730.7 11129.29,11852.81 11508.48,11852.81 11508.48,12077.12 11129.29,12077.12 11129.29,12204.25 11508.48,12204.25 11508.48,12455.96 11129.29,12455.96 10980.55,12455.96 10815.23,12176.83 10815.23,12107.02 10815.23,11827.89 10815.23,11770.58 10815.23,11491.45 11129.29,11491.45 11508.48,11491.45 "/>
  <polygon class="fil0" points="11607.78,11491.45 11903.11,11491.45 12053.18,11731.31 12203.26,11491.45 12498.59,11491.45 12498.59,12455.95 12203.26,12455.95 12203.26,11965.65 12053.18,12204.86 11903.11,11965.65 11903.11,12455.95 11607.78,12455.95 "/>
  <path class="fil0" d="M12600.43 12455.91l247.49 0 0 -318.18 222.69 0 -0.29 318.18 247.88 0 -0.42 -849.78 -119.76 -114.68 -309.16 0 -288.43 0 0 964.46zm247.48 -542.53l0.01 -258.66 174.04 -0.5 48.26 45.65 0.27 213.51 -222.58 0z"/>
  <polygon class="fil0" points="15767.19,11491.45 16295.8,11491.45 16438.18,11731.92 16075.37,11731.92 16075.37,11855.59 16438.18,11855.59 16438.18,12455.44 15914.97,12455.44 15767.19,12205.37 16143.96,12205.37 16143.96,12078.57 15767.19,12078.57 "/>
  <path class="fil0" d="M14937.05 11491.45l604.42 0 119.82 113.33 0 310.58 -119.81 116.46 106.08 178.41 146.19 245.94 -296.49 0.06 -187.95 -318.5 -111.01 0.13 0 318.42 -261.25 0 0 -964.83zm261.26 163.06l174.24 0 48.3 45.7 0 167.51 -41.38 39.54 -6.9 6.07 -174.26 0 0 -258.82z"/>
  <polygon class="fil0" points="13420.32,11491.45 13707.17,11491.45 13707.17,11825.85 13889.17,11491.45 14113.72,11491.45 14113.72,11730.42 13972.18,11990.98 14229.18,12456.67 14118.21,12456.67 13914.43,12456.67 13739.79,12136.95 13707.13,12137.02 13707.13,12203.88 13707.24,12456.67 13565.69,12456.67 13420.32,12457.02 "/>
  <polygon class="fil0" points="14831.77,11730.7 14495.17,11730.7 14495.17,11852.81 14831.77,11852.81 14831.77,12077.12 14495.17,12077.12 14495.17,12204.25 14831.77,12204.25 14831.77,12455.96 14495.17,12455.96 14381.13,12455.96 14216.38,12176.83 14216.38,12107.02 14216.38,11827.89 14216.38,11770.58 14216.38,11491.45 14495.17,11491.45 14831.77,11491.45 "/>
  <path class="fil0" d="M17774.44 11490.26l604.42 0 119.82 113.34 0 310.58 -119.81 116.45 106.08 178.41 146.18 245.94 -296.49 0.06 -187.94 -318.49 -111.01 0.13 0 318.42 -261.25 0 0 -964.84zm261.26 163.07l174.24 0 48.3 45.69 0 167.51 -41.38 39.55 -6.9 6.07 -174.26 0 0 -258.82z"/>
  <polygon class="fil0" points="18734.45,12253.07 18937.87,12253.07 18937.87,12456.48 18785.49,12456.48 18734.45,12392.6 "/>
  <polygon class="fil0" points="16953.02,12031.77 16953.02,12456.56 17492.9,12456.75 17670.52,12314.85 17670.09,11490.02 17074.46,11490.02 17074.46,11728.97 17409.47,11728.97 17409.47,12242.31 17181.86,12242.31 17181.86,12031.77 "/>
  <path class="fil0" d="M10398.08 12276.76c8.99,-35.27 -0.57,-65.03 -32.16,-82.71 -52.14,-29.83 -102.76,-60.74 -154.9,-90.58 -49.92,-28.72 -98.74,-57.81 -148.28,-87.28 -19.81,-11.77 -30.66,-30.14 -31.44,-53.66 -1.52,-23.88 -1.55,-48.86 -1.94,-73.11 -1.37,-34.89 14.48,-58.38 43.6,-77.08 93.34,-58.64 185.53,-116.91 278.12,-175.92 34.34,-21.63 46.21,-49.88 33.76,-86.65 -34.44,-103.27 -61.85,-209.47 -96.29,-312.74 -16,-47.76 -31.77,-58.44 -82.48,-57.04 -92.56,3.55 -185.11,7.09 -278.04,11.37 -103.31,4.61 -103.7,5.35 -156.89,-81.41 -2.54,-4.05 -4.33,-7.72 -6.12,-11.4 -12.29,-20.95 -13.84,-42.99 -2.43,-65.02 19.79,-40.01 34.07,-81.87 55.33,-121.14 31.89,-57.99 55.7,-120.04 86.49,-179.51 26.98,-52.12 21.36,-73.43 -22.88,-111.32 -81.55,-69.56 -161.58,-142.03 -252.93,-199.83 -9.55,-4.78 -18.38,-9.21 -27.93,-14.01 -25.02,-8.84 -46.58,-2.99 -67.51,12.4 -26.56,20.91 -56.42,39.23 -84.07,58.67 -61.64,42.15 -122.19,85.77 -184.19,126.83 -17.17,11.73 -36.16,19.79 -56.37,10.57 -26.5,-11.43 -53.77,-19.54 -79.87,-31.71 -29.4,-14.73 -46.86,-36.43 -50.83,-69.85 -8.3,-69.81 -18.42,-139.62 -27.82,-209.06 -5.69,-42.61 -9.89,-86.34 -17.44,-128.96 -5.16,-29.39 -18.91,-51.08 -49.93,-55.53 -113.73,-18.17 -227.46,-34.49 -341.97,-49.35 -31.39,-3.7 -55.62,9.1 -70.49,39.58 -25.54,54.68 -47.04,110.5 -71.12,165.93 -20.67,48.83 -41.32,97.65 -61.62,147.58 -12.25,29 -33.95,45.87 -65.46,49.5 -28.92,4 -57.08,8.37 -86,12.37 -33.02,4.71 -58.02,-5.97 -79.14,-29.51 -29.15,-33.09 -57.92,-66.93 -85.94,-100.4 -43.72,-51.49 -87.78,-102.25 -132.57,-153.36 -21.49,-24.65 -48.31,-39 -81.08,-23.98 -103.51,46.12 -207.37,91.15 -309.43,139.87 -26.82,12.44 -35.64,34.85 -34.17,62.4 0.96,10.66 2.3,20.57 4.38,30.86 17.86,99.58 34.22,200.24 53.21,299.45 6.56,33.81 -1.97,60.98 -29.28,83.34 -25.46,20.55 -50.53,40.34 -74.15,62.72 -30,29.33 -63.03,35.9 -103.55,23 -100.6,-31 -202.32,-59.82 -303.67,-89.33 -50.86,-14.41 -72.79,-7.82 -103,36.21 -46.05,65.68 -84.42,136.16 -124.24,205.9 -7.16,10.28 -8.45,23.5 -18.92,31.21 -10.65,20.53 -20.91,40.36 -31.55,60.92 1.23,17.26 11.43,29.77 22.71,41.91 73.65,79.45 147.69,158.16 221.7,236.88 22.6,24.28 27.8,49.99 18.11,81.19 -13.51,42.23 -26.33,84.84 -39.13,127.42 -10.1,33.78 -31.43,51.74 -64.87,60.89 -106.97,29.6 -213.99,62.87 -321,92.47 -33.4,9.15 -51.87,32.25 -52.36,67.15 -1.75,99.92 -1.65,199.83 -0.44,299.39 0.83,46.64 16.9,62.09 61.88,73.55 103.64,25.11 206.51,51.72 309.4,76.48 34.67,8.12 54.76,26.51 64.29,59.97 11.31,38.94 23.33,78.26 37.98,116.13 16.43,43.35 9.28,78.62 -24.15,114.55 -69.89,75.95 -137.59,154.83 -205.99,231.5 -35.34,39.63 -36.35,59.46 -8.12,105.05 17.02,26.09 34.42,51.47 51.47,77.58 34.05,52.21 69.22,104.06 103.66,155.52 23.19,35.67 45.66,42.32 87.64,30.98 10.76,-2.92 21.93,-6.56 32.35,-10.6 92.98,-34.76 187.39,-65.13 281.45,-96.58 33.44,-10.97 61.16,-7.25 87.1,15.92 33.28,28.7 67.67,57.04 102.82,83.9 31.85,24.3 41.81,53.32 35.35,92.62 -17.67,100.26 -31.29,201.62 -48.96,301.88 -5.22,29.74 0.03,51.79 22.7,70.56 89.06,44.64 186.06,89.28 277.6,127.12 62.54,25.8 73.68,23.98 115.83,-27.01 65.88,-80.72 132.49,-161.07 197.63,-242.17 18.83,-23.85 40.18,-41.81 73.42,-38.09 49.52,4.47 99.41,10.05 148.54,15.27 24.77,2.23 41.98,15.49 52.77,37.54 5.4,11.03 10.8,22.06 15.46,32.72 39.79,91.14 80.74,181.94 121.65,272.72 17.94,40.44 39.64,50.39 84.13,43.11 41.55,-6.92 82.38,-16.05 123.92,-22.98 55.63,-9.1 110.55,-20.4 165.1,-30.99 53.43,-10.2 68.07,-25.98 75.09,-78.87 0.83,-5.13 1.62,-10.27 1.71,-15.78 12.13,-102.11 23.91,-203.48 35.32,-305.94 3.81,-34.16 19.31,-58.75 50.24,-73.77 32.05,-15.38 64.09,-32.61 96.52,-48.71 26.84,-14.28 52.71,-12.42 76.91,3.41 45.11,29.08 89.83,58.89 135.33,87.25 49.53,31.29 97.14,66.26 149.29,94.24 34.89,18.43 56.04,15.15 85.64,-11.63 79.1,-72.25 157.43,-144.86 235.77,-217.49 28.11,-25.67 33.64,-50.64 17.83,-84.46 -15.82,-33.82 -32.01,-66.9 -48.94,-100.36 -35.29,-69.46 -69.48,-139.3 -103.66,-209.15 -11.54,-22.42 -16.36,-47.04 -1.99,-69.43 15.12,-23.86 28.04,-48.81 42.06,-72.3 20.1,-35.24 48.82,-51.35 90.61,-49.83 101.72,1.99 202.79,-0.08 304.51,1.9 25.89,0.04 46.33,-5.45 62.52,-26 4.94,-9.53 9.52,-18.35 14.45,-27.88 38.44,-102.81 66.58,-210.78 94.35,-317.98zm-1300.61 611.5c139.01,0 251.7,-112.34 251.7,-250.93 0,-138.56 -112.69,-250.92 -251.7,-250.92 -106.88,0 -198.19,66.42 -234.69,160.12l-651.3 0.41 -330.31 -473.31 1249.85 -0.87c36,94.67 127.82,161.98 235.42,161.98 139.01,0 251.7,-112.33 251.7,-250.91 0,-138.57 -112.69,-250.93 -251.7,-250.93 -106.48,0 -197.51,65.9 -234.28,159.01l-1251.05 0 330.35 -473.37 651.01 -1.23c36.28,94.12 127.8,160.92 235,160.92 139.01,0 251.7,-112.34 251.7,-250.92 0,-138.57 -112.69,-250.93 -251.7,-250.93 -107.2,0 -198.72,66.82 -235.01,160.94l-744.94 -0.41 -457.79 655 -259.86 0 0 181.96 260.02 -0.09 457.64 654.78 744.85 -0.41 0 -1.05c36.22,94.24 127.8,161.16 235.09,161.16zm268.97 -757.01c81.64,0 147.84,-66.01 147.84,-147.42 0,-81.42 -66.2,-147.42 -147.84,-147.42 -81.66,0 -147.86,66 -147.86,147.42 0,81.41 66.2,147.42 147.86,147.42zm-268.97 653.51c81.67,0 147.84,-66 147.84,-147.43 0,-81.41 -66.17,-147.4 -147.84,-147.4 -81.66,0 -147.84,65.99 -147.84,147.4 0,81.43 66.18,147.43 147.84,147.43zm0 -1310.03c81.67,0 147.84,-66.01 147.84,-147.42 0,-81.42 -66.17,-147.41 -147.84,-147.41 -81.66,0 -147.84,65.99 -147.84,147.41 0,81.41 66.18,147.42 147.84,147.42z"/>
 </g>
</svg>
